<mxfile host="app.diagrams.net" agent="Mozilla/5.0 (Macintosh; Intel Mac OS X 10_15_7) AppleWebKit/537.36 (KHTML, like Gecko) Chrome/129.0.0.0 Safari/537.36" version="24.7.17">
  <diagram name="Page-1" id="9x5-_oXFEfUmYH-ivR2F">
    <mxGraphModel dx="5331" dy="3354" grid="0" gridSize="10" guides="1" tooltips="1" connect="1" arrows="1" fold="1" page="0" pageScale="1" pageWidth="850" pageHeight="1100" math="0" shadow="0">
      <root>
        <mxCell id="0" />
        <mxCell id="1" parent="0" />
        <mxCell id="oakyi_jp26c_EkVgOyCk-39" value="Scores" style="swimlane;whiteSpace=wrap;html=1;fillColor=none;fontSize=13;" parent="1" vertex="1">
          <mxGeometry x="-1597" y="-1553" width="466" height="726" as="geometry" />
        </mxCell>
        <mxCell id="-FDA-t5ywO-ASH0E98tJ-29" style="edgeStyle=orthogonalEdgeStyle;rounded=0;orthogonalLoop=1;jettySize=auto;html=1;exitX=1;exitY=0.5;exitDx=0;exitDy=0;endArrow=none;endFill=0;startArrow=classic;startFill=1;" edge="1" parent="oakyi_jp26c_EkVgOyCk-39" source="oakyi_jp26c_EkVgOyCk-28">
          <mxGeometry relative="1" as="geometry">
            <mxPoint x="388.11111111111086" y="1137.8888888888887" as="targetPoint" />
            <Array as="points">
              <mxPoint x="566" y="74" />
              <mxPoint x="566" y="1138" />
            </Array>
          </mxGeometry>
        </mxCell>
        <mxCell id="oakyi_jp26c_EkVgOyCk-28" value="&lt;span class=&quot;hljs-built_in&quot; style=&quot;font-size: 13px;&quot;&gt;get_all_scores_by_course&lt;/span&gt;(course)" style="ellipse;whiteSpace=wrap;html=1;align=center;fillColor=none;fontSize=13;" parent="oakyi_jp26c_EkVgOyCk-39" vertex="1">
          <mxGeometry x="116" y="48.5" width="230" height="52" as="geometry" />
        </mxCell>
        <mxCell id="oakyi_jp26c_EkVgOyCk-29" value="&lt;span class=&quot;hljs-built_in&quot; style=&quot;font-size: 13px;&quot;&gt;get_all_scores_by_course&lt;/span&gt;(course)" style="ellipse;whiteSpace=wrap;html=1;align=center;fillColor=none;fontSize=13;" parent="oakyi_jp26c_EkVgOyCk-39" vertex="1">
          <mxGeometry x="120" y="142.5" width="226" height="66" as="geometry" />
        </mxCell>
        <mxCell id="oakyi_jp26c_EkVgOyCk-30" value="&lt;span class=&quot;hljs-built_in&quot; style=&quot;font-size: 13px;&quot;&gt;get_all_scores_by_student&lt;/span&gt;(student_id)" style="ellipse;whiteSpace=wrap;html=1;align=center;fillColor=none;fontSize=13;" parent="oakyi_jp26c_EkVgOyCk-39" vertex="1">
          <mxGeometry x="105.5" y="269.5" width="255" height="68" as="geometry" />
        </mxCell>
        <mxCell id="oakyi_jp26c_EkVgOyCk-31" value="&lt;span class=&quot;hljs-built_in&quot; style=&quot;font-size: 13px;&quot;&gt;get_all_scores&lt;/span&gt;()" style="ellipse;whiteSpace=wrap;html=1;align=center;fillColor=none;fontSize=13;" parent="oakyi_jp26c_EkVgOyCk-39" vertex="1">
          <mxGeometry x="162.25" y="390.5" width="137.5" height="50" as="geometry" />
        </mxCell>
        <mxCell id="oakyi_jp26c_EkVgOyCk-32" value="&lt;span class=&quot;hljs-built_in&quot; style=&quot;font-size: 13px;&quot;&gt;update_student_scores&lt;/span&gt;(student_id, score)" style="ellipse;whiteSpace=wrap;html=1;align=center;fillColor=none;fontSize=13;" parent="oakyi_jp26c_EkVgOyCk-39" vertex="1">
          <mxGeometry x="105.75" y="503.5" width="254.5" height="63" as="geometry" />
        </mxCell>
        <mxCell id="oakyi_jp26c_EkVgOyCk-33" value="&lt;span class=&quot;hljs-built_in&quot; style=&quot;font-size: 13px;&quot;&gt;update_student_score_by_course&lt;/span&gt;(student_id,course_id,score)" style="ellipse;whiteSpace=wrap;html=1;align=center;fillColor=none;fontSize=13;" parent="oakyi_jp26c_EkVgOyCk-39" vertex="1">
          <mxGeometry x="37.75" y="613.5" width="390.5" height="64" as="geometry" />
        </mxCell>
        <mxCell id="oakyi_jp26c_EkVgOyCk-41" value="Courses" style="swimlane;whiteSpace=wrap;html=1;fillColor=none;fontSize=13;" parent="1" vertex="1">
          <mxGeometry x="-937" y="-735" width="512" height="876" as="geometry" />
        </mxCell>
        <mxCell id="oakyi_jp26c_EkVgOyCk-44" value="&lt;span class=&quot;hljs-built_in&quot; style=&quot;font-size: 13px;&quot;&gt;add_course&lt;/span&gt;(course_name,instructor_name, program_name[list])" style="ellipse;whiteSpace=wrap;html=1;align=center;fillColor=none;fontSize=13;" parent="oakyi_jp26c_EkVgOyCk-41" vertex="1">
          <mxGeometry x="44.5" y="60" width="423" height="80.5" as="geometry" />
        </mxCell>
        <mxCell id="oakyi_jp26c_EkVgOyCk-45" value="&lt;span class=&quot;hljs-built_in&quot; style=&quot;font-size: 13px;&quot;&gt;view_course&lt;/span&gt;(course_id)" style="ellipse;whiteSpace=wrap;html=1;align=center;fillColor=none;fontSize=13;" parent="oakyi_jp26c_EkVgOyCk-41" vertex="1">
          <mxGeometry x="164.75" y="180" width="182.5" height="66" as="geometry" />
        </mxCell>
        <mxCell id="oakyi_jp26c_EkVgOyCk-46" value="&lt;span class=&quot;hljs-built_in&quot; style=&quot;font-size: 13px;&quot;&gt;view_all_courses&lt;/span&gt;()" style="ellipse;whiteSpace=wrap;html=1;align=center;fillColor=none;fontSize=13;" parent="oakyi_jp26c_EkVgOyCk-41" vertex="1">
          <mxGeometry x="177.88" y="285.5" width="156.25" height="66" as="geometry" />
        </mxCell>
        <mxCell id="oakyi_jp26c_EkVgOyCk-47" value="&lt;span class=&quot;hljs-built_in&quot; style=&quot;font-size: 13px;&quot;&gt;remove_course&lt;/span&gt;(course_id)" style="ellipse;whiteSpace=wrap;html=1;align=center;fillColor=none;fontSize=13;" parent="oakyi_jp26c_EkVgOyCk-41" vertex="1">
          <mxGeometry x="165.44" y="391" width="181.13" height="66" as="geometry" />
        </mxCell>
        <mxCell id="oakyi_jp26c_EkVgOyCk-48" value="&lt;span class=&quot;hljs-built_in&quot; style=&quot;font-size: 13px;&quot;&gt;update_course_name&lt;/span&gt;(course_id,course_name)" style="ellipse;whiteSpace=wrap;html=1;align=center;fillColor=none;fontSize=13;" parent="oakyi_jp26c_EkVgOyCk-41" vertex="1">
          <mxGeometry x="101.72" y="494" width="308.56" height="75" as="geometry" />
        </mxCell>
        <mxCell id="oakyi_jp26c_EkVgOyCk-49" value="&lt;span class=&quot;hljs-built_in&quot; style=&quot;font-size: 13px;&quot;&gt;update_course_instructor&lt;/span&gt;(course_id,instructor_name)" style="ellipse;whiteSpace=wrap;html=1;align=center;fillColor=none;fontSize=13;" parent="oakyi_jp26c_EkVgOyCk-41" vertex="1">
          <mxGeometry x="94.01" y="606" width="324" height="75" as="geometry" />
        </mxCell>
        <mxCell id="oakyi_jp26c_EkVgOyCk-50" value="&lt;span class=&quot;hljs-built_in&quot; style=&quot;font-size: 13px;&quot;&gt;update_course_program&lt;/span&gt;(course_id,program_name[list])" style="ellipse;whiteSpace=wrap;html=1;align=center;fillColor=none;fontSize=13;" parent="oakyi_jp26c_EkVgOyCk-41" vertex="1">
          <mxGeometry x="89" y="718" width="334" height="75" as="geometry" />
        </mxCell>
        <mxCell id="oakyi_jp26c_EkVgOyCk-51" value="Student" style="swimlane;fillColor=none;fontSize=13;" parent="1" vertex="1">
          <mxGeometry x="-2223" y="-716" width="544" height="796" as="geometry" />
        </mxCell>
        <mxCell id="oakyi_jp26c_EkVgOyCk-52" value="add_student(name)" style="ellipse;whiteSpace=wrap;html=1;align=center;fillColor=none;fontSize=13;" parent="oakyi_jp26c_EkVgOyCk-51" vertex="1">
          <mxGeometry x="189" y="58" width="166" height="67" as="geometry" />
        </mxCell>
        <mxCell id="oakyi_jp26c_EkVgOyCk-53" value="view_student(id)" style="ellipse;whiteSpace=wrap;html=1;align=center;fillColor=none;fontSize=13;" parent="oakyi_jp26c_EkVgOyCk-51" vertex="1">
          <mxGeometry x="189" y="160" width="166" height="62" as="geometry" />
        </mxCell>
        <mxCell id="oakyi_jp26c_EkVgOyCk-54" value="view_all_students()" style="ellipse;whiteSpace=wrap;html=1;align=center;fillColor=none;fontSize=13;" parent="oakyi_jp26c_EkVgOyCk-51" vertex="1">
          <mxGeometry x="189" y="257" width="166" height="62" as="geometry" />
        </mxCell>
        <mxCell id="oakyi_jp26c_EkVgOyCk-55" value="&lt;span style=&quot;text-align: left; font-size: 13px;&quot;&gt;update_student_name(student_id,name)&lt;/span&gt;" style="ellipse;whiteSpace=wrap;html=1;align=center;fillColor=none;fontSize=13;" parent="oakyi_jp26c_EkVgOyCk-51" vertex="1">
          <mxGeometry x="137" y="350" width="270" height="82" as="geometry" />
        </mxCell>
        <mxCell id="oakyi_jp26c_EkVgOyCk-57" value="&lt;span style=&quot;text-align: left; font-size: 13px;&quot;&gt;update_student_program(student_id,name)&lt;/span&gt;" style="ellipse;whiteSpace=wrap;html=1;align=center;fillColor=none;fontSize=13;" parent="oakyi_jp26c_EkVgOyCk-51" vertex="1">
          <mxGeometry x="137" y="463" width="270" height="82" as="geometry" />
        </mxCell>
        <mxCell id="-FDA-t5ywO-ASH0E98tJ-1" value="&lt;span style=&quot;text-align: left; font-size: 13px;&quot;&gt;remove_student(student_id)&lt;/span&gt;" style="ellipse;whiteSpace=wrap;html=1;align=center;fillColor=none;fontSize=13;" vertex="1" parent="oakyi_jp26c_EkVgOyCk-51">
          <mxGeometry x="163.34" y="571" width="217.32" height="66" as="geometry" />
        </mxCell>
        <mxCell id="-FDA-t5ywO-ASH0E98tJ-2" value="&lt;span style=&quot;text-align: left; font-size: 13px;&quot;&gt;list_students_by_program_name(student_id, program_name)&lt;/span&gt;" style="ellipse;whiteSpace=wrap;html=1;align=center;fillColor=none;fontSize=13;" vertex="1" parent="oakyi_jp26c_EkVgOyCk-51">
          <mxGeometry x="90" y="663" width="364" height="75" as="geometry" />
        </mxCell>
        <mxCell id="-FDA-t5ywO-ASH0E98tJ-11" style="rounded=0;orthogonalLoop=1;jettySize=auto;html=1;exitX=0;exitY=0.3333333333333333;exitDx=0;exitDy=0;exitPerimeter=0;entryX=1;entryY=0.5;entryDx=0;entryDy=0;" edge="1" parent="1" source="-FDA-t5ywO-ASH0E98tJ-4" target="oakyi_jp26c_EkVgOyCk-52">
          <mxGeometry relative="1" as="geometry" />
        </mxCell>
        <mxCell id="-FDA-t5ywO-ASH0E98tJ-12" style="rounded=0;orthogonalLoop=1;jettySize=auto;html=1;exitX=0;exitY=0.3333333333333333;exitDx=0;exitDy=0;exitPerimeter=0;entryX=1;entryY=0.5;entryDx=0;entryDy=0;" edge="1" parent="1" source="-FDA-t5ywO-ASH0E98tJ-4" target="oakyi_jp26c_EkVgOyCk-53">
          <mxGeometry relative="1" as="geometry" />
        </mxCell>
        <mxCell id="-FDA-t5ywO-ASH0E98tJ-13" style="rounded=0;orthogonalLoop=1;jettySize=auto;html=1;exitX=0;exitY=0.3333333333333333;exitDx=0;exitDy=0;exitPerimeter=0;entryX=1;entryY=0.5;entryDx=0;entryDy=0;" edge="1" parent="1" source="-FDA-t5ywO-ASH0E98tJ-4" target="oakyi_jp26c_EkVgOyCk-54">
          <mxGeometry relative="1" as="geometry" />
        </mxCell>
        <mxCell id="-FDA-t5ywO-ASH0E98tJ-14" style="rounded=0;orthogonalLoop=1;jettySize=auto;html=1;exitX=0;exitY=0.3333333333333333;exitDx=0;exitDy=0;exitPerimeter=0;" edge="1" parent="1" source="-FDA-t5ywO-ASH0E98tJ-4" target="oakyi_jp26c_EkVgOyCk-55">
          <mxGeometry relative="1" as="geometry" />
        </mxCell>
        <mxCell id="-FDA-t5ywO-ASH0E98tJ-15" style="rounded=0;orthogonalLoop=1;jettySize=auto;html=1;entryX=1;entryY=0.5;entryDx=0;entryDy=0;" edge="1" parent="1" target="oakyi_jp26c_EkVgOyCk-57">
          <mxGeometry relative="1" as="geometry">
            <mxPoint x="-1479" y="-421" as="sourcePoint" />
          </mxGeometry>
        </mxCell>
        <mxCell id="-FDA-t5ywO-ASH0E98tJ-16" style="rounded=0;orthogonalLoop=1;jettySize=auto;html=1;exitX=0;exitY=0.3333333333333333;exitDx=0;exitDy=0;exitPerimeter=0;entryX=1;entryY=0.5;entryDx=0;entryDy=0;" edge="1" parent="1" source="-FDA-t5ywO-ASH0E98tJ-4" target="-FDA-t5ywO-ASH0E98tJ-1">
          <mxGeometry relative="1" as="geometry" />
        </mxCell>
        <mxCell id="-FDA-t5ywO-ASH0E98tJ-17" style="rounded=0;orthogonalLoop=1;jettySize=auto;html=1;exitX=0;exitY=0.3333333333333333;exitDx=0;exitDy=0;exitPerimeter=0;entryX=1;entryY=0.5;entryDx=0;entryDy=0;" edge="1" parent="1" source="-FDA-t5ywO-ASH0E98tJ-4" target="-FDA-t5ywO-ASH0E98tJ-2">
          <mxGeometry relative="1" as="geometry" />
        </mxCell>
        <mxCell id="-FDA-t5ywO-ASH0E98tJ-18" style="rounded=0;orthogonalLoop=1;jettySize=auto;html=1;exitX=1;exitY=0.3333333333333333;exitDx=0;exitDy=0;exitPerimeter=0;entryX=0;entryY=0.5;entryDx=0;entryDy=0;" edge="1" parent="1" source="-FDA-t5ywO-ASH0E98tJ-4" target="oakyi_jp26c_EkVgOyCk-44">
          <mxGeometry relative="1" as="geometry" />
        </mxCell>
        <mxCell id="-FDA-t5ywO-ASH0E98tJ-19" style="rounded=0;orthogonalLoop=1;jettySize=auto;html=1;exitX=1;exitY=0.3333333333333333;exitDx=0;exitDy=0;exitPerimeter=0;entryX=0;entryY=0.5;entryDx=0;entryDy=0;" edge="1" parent="1" source="-FDA-t5ywO-ASH0E98tJ-4" target="oakyi_jp26c_EkVgOyCk-45">
          <mxGeometry relative="1" as="geometry" />
        </mxCell>
        <mxCell id="-FDA-t5ywO-ASH0E98tJ-20" style="rounded=0;orthogonalLoop=1;jettySize=auto;html=1;exitX=1;exitY=0.3333333333333333;exitDx=0;exitDy=0;exitPerimeter=0;" edge="1" parent="1" source="-FDA-t5ywO-ASH0E98tJ-4" target="oakyi_jp26c_EkVgOyCk-46">
          <mxGeometry relative="1" as="geometry" />
        </mxCell>
        <mxCell id="-FDA-t5ywO-ASH0E98tJ-21" style="rounded=0;orthogonalLoop=1;jettySize=auto;html=1;exitX=1;exitY=0.3333333333333333;exitDx=0;exitDy=0;exitPerimeter=0;entryX=0;entryY=0.5;entryDx=0;entryDy=0;" edge="1" parent="1" source="-FDA-t5ywO-ASH0E98tJ-4" target="oakyi_jp26c_EkVgOyCk-47">
          <mxGeometry relative="1" as="geometry" />
        </mxCell>
        <mxCell id="-FDA-t5ywO-ASH0E98tJ-22" style="rounded=0;orthogonalLoop=1;jettySize=auto;html=1;exitX=1;exitY=0.3333333333333333;exitDx=0;exitDy=0;exitPerimeter=0;entryX=0;entryY=0.5;entryDx=0;entryDy=0;" edge="1" parent="1" source="-FDA-t5ywO-ASH0E98tJ-4" target="oakyi_jp26c_EkVgOyCk-48">
          <mxGeometry relative="1" as="geometry" />
        </mxCell>
        <mxCell id="-FDA-t5ywO-ASH0E98tJ-23" style="rounded=0;orthogonalLoop=1;jettySize=auto;html=1;exitX=1;exitY=0.3333333333333333;exitDx=0;exitDy=0;exitPerimeter=0;" edge="1" parent="1" source="-FDA-t5ywO-ASH0E98tJ-4" target="oakyi_jp26c_EkVgOyCk-49">
          <mxGeometry relative="1" as="geometry" />
        </mxCell>
        <mxCell id="-FDA-t5ywO-ASH0E98tJ-24" style="rounded=0;orthogonalLoop=1;jettySize=auto;html=1;exitX=1;exitY=0.3333333333333333;exitDx=0;exitDy=0;exitPerimeter=0;entryX=0;entryY=0.5;entryDx=0;entryDy=0;" edge="1" parent="1" source="-FDA-t5ywO-ASH0E98tJ-4" target="oakyi_jp26c_EkVgOyCk-49">
          <mxGeometry relative="1" as="geometry" />
        </mxCell>
        <mxCell id="-FDA-t5ywO-ASH0E98tJ-25" style="rounded=0;orthogonalLoop=1;jettySize=auto;html=1;exitX=1;exitY=0.3333333333333333;exitDx=0;exitDy=0;exitPerimeter=0;entryX=0;entryY=0.5;entryDx=0;entryDy=0;" edge="1" parent="1" source="-FDA-t5ywO-ASH0E98tJ-4" target="oakyi_jp26c_EkVgOyCk-50">
          <mxGeometry relative="1" as="geometry" />
        </mxCell>
        <mxCell id="-FDA-t5ywO-ASH0E98tJ-34" style="edgeStyle=orthogonalEdgeStyle;rounded=0;orthogonalLoop=1;jettySize=auto;html=1;entryX=0.5;entryY=1;entryDx=0;entryDy=0;" edge="1" parent="1" source="-FDA-t5ywO-ASH0E98tJ-4" target="oakyi_jp26c_EkVgOyCk-33">
          <mxGeometry relative="1" as="geometry" />
        </mxCell>
        <mxCell id="-FDA-t5ywO-ASH0E98tJ-35" style="edgeStyle=orthogonalEdgeStyle;rounded=0;orthogonalLoop=1;jettySize=auto;html=1;exitX=0.5;exitY=0;exitDx=0;exitDy=0;exitPerimeter=0;" edge="1" parent="1" source="-FDA-t5ywO-ASH0E98tJ-4" target="oakyi_jp26c_EkVgOyCk-31">
          <mxGeometry relative="1" as="geometry">
            <Array as="points">
              <mxPoint x="-1344" y="-775" />
              <mxPoint x="-1672" y="-775" />
              <mxPoint x="-1672" y="-1137" />
            </Array>
          </mxGeometry>
        </mxCell>
        <mxCell id="-FDA-t5ywO-ASH0E98tJ-36" style="edgeStyle=orthogonalEdgeStyle;rounded=0;orthogonalLoop=1;jettySize=auto;html=1;exitX=0.5;exitY=0;exitDx=0;exitDy=0;exitPerimeter=0;entryX=0;entryY=0.5;entryDx=0;entryDy=0;" edge="1" parent="1" source="-FDA-t5ywO-ASH0E98tJ-4" target="oakyi_jp26c_EkVgOyCk-32">
          <mxGeometry relative="1" as="geometry">
            <Array as="points">
              <mxPoint x="-1344" y="-786" />
              <mxPoint x="-1632" y="-786" />
              <mxPoint x="-1632" y="-1018" />
            </Array>
          </mxGeometry>
        </mxCell>
        <mxCell id="-FDA-t5ywO-ASH0E98tJ-37" style="edgeStyle=orthogonalEdgeStyle;rounded=0;orthogonalLoop=1;jettySize=auto;html=1;exitX=0.75;exitY=0.1;exitDx=0;exitDy=0;exitPerimeter=0;entryX=1;entryY=0.5;entryDx=0;entryDy=0;" edge="1" parent="1" source="-FDA-t5ywO-ASH0E98tJ-4" target="oakyi_jp26c_EkVgOyCk-30">
          <mxGeometry relative="1" as="geometry">
            <Array as="points">
              <mxPoint x="-1099" y="-543" />
              <mxPoint x="-1099" y="-901" />
              <mxPoint x="-1081" y="-901" />
              <mxPoint x="-1081" y="-1249" />
            </Array>
          </mxGeometry>
        </mxCell>
        <mxCell id="-FDA-t5ywO-ASH0E98tJ-4" value="&lt;h1&gt;Record Staff Member&lt;/h1&gt;" style="shape=umlActor;verticalLabelPosition=bottom;verticalAlign=top;html=1;outlineConnect=0;strokeWidth=6;perimeterSpacing=9;" vertex="1" parent="1">
          <mxGeometry x="-1470" y="-586" width="251.5" height="503" as="geometry" />
        </mxCell>
        <mxCell id="-FDA-t5ywO-ASH0E98tJ-33" style="edgeStyle=orthogonalEdgeStyle;rounded=0;orthogonalLoop=1;jettySize=auto;html=1;exitX=1;exitY=0.5;exitDx=0;exitDy=0;endArrow=none;endFill=0;" edge="1" parent="1" source="oakyi_jp26c_EkVgOyCk-29" target="-FDA-t5ywO-ASH0E98tJ-4">
          <mxGeometry relative="1" as="geometry">
            <Array as="points">
              <mxPoint x="-1076" y="-1377" />
              <mxPoint x="-1076" y="-773" />
              <mxPoint x="-1344" y="-773" />
            </Array>
          </mxGeometry>
        </mxCell>
      </root>
    </mxGraphModel>
  </diagram>
</mxfile>
